<svg width="19" height="18" viewBox="0 0 19 18" fill="none" xmlns="http://www.w3.org/2000/svg">
<g id="bars-filter (1) 1" clip-path="url(#clip0_396_23581)">
<path id="Vector" d="M18.5 2.625C18.5 3.2475 17.9975 3.75 17.375 3.75H1.625C1.0025 3.75 0.5 3.2475 0.5 2.625C0.5 2.0025 1.0025 1.5 1.625 1.5H17.375C17.9975 1.5 18.5 2.0025 18.5 2.625ZM11.375 15H7.625C7.0025 15 6.5 15.5025 6.5 16.125C6.5 16.7475 7.0025 17.25 7.625 17.25H11.375C11.9975 17.25 12.5 16.7475 12.5 16.125C12.5 15.5025 11.9975 15 11.375 15ZM14.375 8.25H4.625C4.0025 8.25 3.5 8.7525 3.5 9.375C3.5 9.9975 4.0025 10.5 4.625 10.5H14.375C14.9975 10.5 15.5 9.9975 15.5 9.375C15.5 8.7525 14.9975 8.25 14.375 8.25Z" fill="#B4B4B4"/>
</g>
<defs>
<clipPath id="clip0_396_23581">
<rect width="18" height="18" fill="white" transform="translate(0.5)"/>
</clipPath>
</defs>
</svg>
