<svg width="18" height="18" viewBox="0 0 18 18" fill="none" xmlns="http://www.w3.org/2000/svg">
<g id="clipboard-check 1">
<path id="Vector" d="M12 1.5H11.8717C11.562 0.627 10.728 0 9.75 0H8.25C7.272 0 6.438 0.627 6.12825 1.5H6C3.93225 1.5 2.25 3.18225 2.25 5.25V14.25C2.25 16.3177 3.93225 18 6 18H12C14.0677 18 15.75 16.3177 15.75 14.25V5.25C15.75 3.18225 14.0677 1.5 12 1.5ZM12.5303 8.68425L9.85875 11.3558C9.42975 11.7847 8.86725 12.0015 8.30475 12.0015C7.77375 12.0015 7.242 11.8095 6.81975 11.4225L5.49375 10.2067C5.1885 9.92625 5.1675 9.45225 5.44725 9.147C5.727 8.8425 6.20175 8.8215 6.507 9.1005L7.833 10.3162C8.109 10.569 8.53275 10.56 8.79825 10.2952L11.4698 7.62375C11.763 7.3305 12.237 7.3305 12.5303 7.62375C12.8235 7.917 12.8235 8.391 12.5303 8.68425Z" fill="black"/>
</g>
</svg>
