<svg width="22" height="17" viewBox="0 0 22 17" fill="none" xmlns="http://www.w3.org/2000/svg">
<g id="Cloud">
<path id="Union" d="M17 13.2003C19.2459 12.9773 21 11.0824 21 8.77778C21 6.10488 18.5452 4.00249 15.9198 4.37847C15.9155 4.37908 15.9113 4.3769 15.9093 4.37305C14.9052 2.37277 12.8351 1 10.4444 1C7.25974 1 4.64402 3.43609 4.35907 6.54647C4.3586 6.55164 4.35421 6.55563 4.34902 6.55563C2.52707 6.55405 1 8.06056 1 9.88889C1 11.7298 2.49238 13.2222 4.33333 13.2222H5" stroke="white" stroke-width="1.5" stroke-linecap="round"/>
<g id="Down">
<path id="Vector 140" d="M8.5 13.5L10.6464 15.6464C10.8417 15.8417 11.1583 15.8417 11.3535 15.6464L13.5 13.5" stroke="white" stroke-width="1.5" stroke-linecap="round"/>
<path id="Vector 141" d="M11 15L11 9" stroke="white" stroke-width="1.5" stroke-linecap="round"/>
</g>
</g>
</svg>
