<svg width="16" height="16" viewBox="0 0 16 16" fill="none" xmlns="http://www.w3.org/2000/svg">
<g id="Iconex/Light/Trash can">
<g id="Trash can">
<path id="Rectangle 74" d="M3.36709 5.82278C2.80382 5.07176 3.3397 4 4.27848 4H11.7215C12.6603 4 13.1962 5.07176 12.6329 5.82278V5.82278C12.2221 6.37056 12 7.0368 12 7.72152V12C12 13.4728 10.8061 14.6667 9.33333 14.6667H6.66667C5.19391 14.6667 4 13.4728 4 12V7.72152C4 7.0368 3.77792 6.37056 3.36709 5.82278V5.82278Z" stroke="#FF8383"/>
<path id="Line" d="M9.33398 11.334L9.33398 7.33398" stroke="#FF8383" stroke-linecap="round" stroke-linejoin="round"/>
<path id="Line_2" d="M6.66602 11.334L6.66602 7.33398" stroke="#FF8383" stroke-linecap="round" stroke-linejoin="round"/>
<path id="Rectangle 4" d="M10.6673 4L10.3045 2.9117C10.1231 2.36724 9.61355 2 9.03964 2H6.96166C6.38776 2 5.87824 2.36724 5.69675 2.9117L5.33398 4" stroke="#FF8383" stroke-linecap="round"/>
</g>
</g>
</svg>
