<svg width="24" height="24" viewBox="0 0 24 24" fill="none" xmlns="http://www.w3.org/2000/svg">
<circle cx="12" cy="12" r="12" fill="#FFE7E7"/>
<path d="M7.36709 9.82278C6.80382 9.07176 7.3397 8 8.27848 8H15.7215C16.6603 8 17.1962 9.07176 16.6329 9.82278V9.82278C16.2221 10.3706 16 11.0368 16 11.7215V16C16 17.4728 14.8061 18.6667 13.3333 18.6667H10.6667C9.19391 18.6667 8 17.4728 8 16V11.7215C8 11.0368 7.77792 10.3706 7.36709 9.82278V9.82278Z" stroke="#FF8383"/>
<path d="M13.333 15.334L13.333 11.334" stroke="#FF8383" stroke-linecap="round" stroke-linejoin="round"/>
<path d="M10.667 15.334L10.667 11.334" stroke="#FF8383" stroke-linecap="round" stroke-linejoin="round"/>
<path d="M14.6663 8L14.3036 6.9117C14.1221 6.36724 13.6126 6 13.0387 6H10.9607C10.3868 6 9.87726 6.36724 9.69578 6.9117L9.33301 8" stroke="#FF8383" stroke-linecap="round"/>
</svg>
