<svg width="24" height="24" viewBox="0 0 24 24" fill="none" xmlns="http://www.w3.org/2000/svg">
<rect width="24" height="24" rx="12" fill="#121212"/>
<path d="M11.328 19.648V17.488C9.872 17.152 8.64 16.224 8.48 15.168L11.136 14.432C11.296 14.912 11.712 15.296 12.4 15.328C12.928 15.344 13.424 15.008 13.424 14.496C13.424 14.176 13.184 13.84 12.672 13.712L11.152 13.328C9.584 12.928 8.688 11.84 8.688 10.32C8.688 8.688 9.648 7.6 11.328 7.28V5.52H13.632V7.296C14.864 7.552 15.712 8.272 16.24 9.584L13.6 10.336C13.504 9.968 13.12 9.472 12.432 9.472C11.792 9.472 11.424 9.776 11.424 10.32C11.424 10.672 11.712 10.928 12.256 11.072L13.776 11.472C15.312 11.872 16.224 13.072 16.224 14.512C16.224 16.128 15.28 17.184 13.632 17.504V19.648H11.328Z" fill="#C8D4DF"/>
</svg>
