<svg width="9" height="15" viewBox="0 0 9 15" fill="none" xmlns="http://www.w3.org/2000/svg">
<path d="M3.328 14.648V12.488C1.872 12.152 0.64 11.224 0.48 10.168L3.136 9.432C3.296 9.912 3.712 10.296 4.4 10.328C4.928 10.344 5.424 10.008 5.424 9.496C5.424 9.176 5.184 8.84 4.672 8.712L3.152 8.328C1.584 7.928 0.688 6.84 0.688 5.32C0.688 3.688 1.648 2.6 3.328 2.28V0.52H5.632V2.296C6.864 2.552 7.712 3.272 8.24 4.584L5.6 5.336C5.504 4.968 5.12 4.472 4.432 4.472C3.792 4.472 3.424 4.776 3.424 5.32C3.424 5.672 3.712 5.928 4.256 6.072L5.776 6.472C7.312 6.872 8.224 8.072 8.224 9.512C8.224 11.128 7.28 12.184 5.632 12.504V14.648H3.328Z" fill="#C8D4DF"/>
</svg>
