<svg width="100" height="58" viewBox="0 0 100 58" fill="none" xmlns="http://www.w3.org/2000/svg">
<rect width="100" height="58" rx="6" fill="white"/>
<path d="M16.824 47V30.2H20.064V36.848L26.28 30.2H30.528L23.448 37.784L30.792 47H26.736L21.312 40.064L20.064 41.384V47H16.824ZM35.7298 47.288C32.8498 47.288 31.1938 45.968 31.1938 43.616C31.1938 41.072 32.9698 39.752 36.0418 39.752H38.8498C38.6338 38.24 37.9378 37.4 36.5698 37.4C35.5378 37.4 34.7218 37.808 34.1698 38.768L31.5058 37.832C32.2018 36.296 33.7378 34.712 36.6178 34.712C40.1938 34.712 41.9698 36.704 41.9698 40.376V47H39.0178L38.9938 45.704C38.3218 46.736 37.2658 47.288 35.7298 47.288ZM36.1858 44.768C37.7698 44.768 38.9218 43.448 38.9218 42.08H38.9458V42.008H37.0498C34.9378 42.008 34.2418 42.584 34.2418 43.52C34.2418 44.312 34.9618 44.768 36.1858 44.768ZM44.4696 47V35H47.4456L47.5896 36.608C48.3816 35.36 49.6056 34.712 51.0936 34.712C53.9976 34.712 55.6056 36.464 55.5816 40.136V47H52.4136V40.856C52.4136 38.432 51.5256 37.712 50.1816 37.688C48.5256 37.664 47.6376 38.72 47.6376 40.712V47H44.4696ZM62.8862 47.288C59.5742 47.288 57.4622 44.84 57.4622 41C57.4622 37.16 59.5742 34.712 62.8862 34.712C64.4702 34.712 65.6942 35.384 66.4862 36.608V30.2H69.6542V47H66.6542L66.5342 45.344C65.7422 46.592 64.4942 47.288 62.8862 47.288ZM63.7022 44.384C65.2382 44.384 66.3422 43.16 66.4862 41.36V40.64C66.3422 38.84 65.2382 37.64 63.6782 37.64C61.9742 37.64 60.7502 39.032 60.7502 41C60.7502 42.968 61.9982 44.384 63.7022 44.384ZM76.4876 47.288C73.6076 47.288 71.9516 45.968 71.9516 43.616C71.9516 41.072 73.7276 39.752 76.7996 39.752H79.6076C79.3916 38.24 78.6956 37.4 77.3276 37.4C76.2956 37.4 75.4796 37.808 74.9276 38.768L72.2636 37.832C72.9596 36.296 74.4956 34.712 77.3756 34.712C80.9516 34.712 82.7276 36.704 82.7276 40.376V47H79.7756L79.7516 45.704C79.0796 46.736 78.0236 47.288 76.4876 47.288ZM76.9436 44.768C78.5276 44.768 79.6796 43.448 79.6796 42.08H79.7036V42.008H77.8076C75.6956 42.008 74.9996 42.584 74.9996 43.52C74.9996 44.312 75.7196 44.768 76.9436 44.768Z" fill="#121212"/>
<rect x="38.7695" y="6" width="25.249" height="8.25447" rx="1" transform="rotate(50 38.7695 6)" fill="#296CD6"/>
<rect x="30.6211" y="12.9107" width="16.9945" height="6.31224" rx="1" transform="rotate(50 30.6211 12.9107)" fill="#296CD6"/>
<rect x="23.9766" y="18.8183" width="8.74003" height="3.88446" rx="1" transform="rotate(50 23.9766 18.8183)" fill="#296CD6"/>
</svg>
